Coordinates
version=1
nRows=10
nColumns=40
inDegrees=yes

Units are S.I. units (second, meters, Newtons, ...)
If the header above contains a line with 'inDegrees', this indicates whether rotational values are in degrees (yes) or radians (no).

endheader
time	pelvis_tilt	pelvis_list	pelvis_rotation	pelvis_tx	pelvis_ty	pelvis_tz	hip_flexion_r	hip_adduction_r	hip_rotation_r	knee_angle_r	knee_angle_r_beta	ankle_angle_r	subtalar_angle_r	mtp_angle_r	hip_flexion_l	hip_adduction_l	hip_rotation_l	knee_angle_l	knee_angle_l_beta	ankle_angle_l	subtalar_angle_l	mtp_angle_l	lumbar_extension	lumbar_bending	lumbar_rotation	arm_flex_r	arm_add_r	arm_rot_r	elbow_flex_r	pro_sup_r	wrist_flex_r	wrist_dev_r	arm_flex_l	arm_add_l	arm_rot_l	elbow_flex_l	pro_sup_l	wrist_flex_l	wrist_dev_l
      3.40000000	    -31.56005494	      6.81165038	     -1.78115345	     -0.35561695	      0.67715495	     -0.93349290	     86.63450880	    -14.23870450	      5.73840576	     83.90757094	      1.46446338	     27.35751013	      0.00000000	      0.00000000	     79.22330786	     -9.57760388	     -5.66491489	     81.69821358	      1.42590282	     34.10720157	      0.00000000	      0.00000000	    -23.56147125	     -4.64234323	     -7.88547083	      0.73080356	    -45.27996994	     59.34909149	     88.05876361	     85.61036072	      0.00000000	      0.00000000	     -4.53636462	    -54.37773647	     61.69331697	     96.59503838	     87.40503750	      0.00000000	      0.00000000
      3.40500000	    -30.54638793	      6.68683271	     -2.06667872	     -0.35128890	      0.68304839	     -0.93249026	     84.75938068	    -13.98955007	      5.57625384	     83.24307181	      1.45286568	     27.12728239	      0.00000000	      0.00000000	     77.37865323	     -9.74383472	     -5.69783686	     81.01144716	      1.41391648	     33.79534189	      0.00000000	      0.00000000	    -23.45568214	     -4.68721433	     -7.61272359	     -0.04654393	    -45.09597998	     58.09396490	     88.01595661	     85.63946724	      0.00000000	      0.00000000	     -5.43844303	    -54.14142921	     60.32897648	     96.46103077	     87.38068483	      0.00000000	      0.00000000
      3.41000000	    -29.49739103	      6.83238908	     -1.91224826	     -0.34683858	      0.68900942	     -0.93286285	     82.99118535	    -14.43565679	      5.56585547	     82.73532504	      1.44400383	     26.88808570	      0.00000000	      0.00000000	     75.47295203	     -9.19236625	     -5.82810599	     80.22606636	      1.40020900	     33.49273440	      0.00000000	      0.00000000	    -23.38332371	     -4.76007986	     -7.85575665	     -1.03476468	    -45.00434500	     56.70967635	     88.25455079	     85.65880772	      0.00000000	      0.00000000	     -6.46670989	    -53.91102993	     58.90590346	     96.47964077	     87.36121347	      0.00000000	      0.00000000
      3.41500000	    -29.06645449	      6.50664373	     -2.47280885	     -0.34369114	      0.69401563	     -0.93117524	     81.74328733	    -13.61211843	      5.35601960	     81.97997619	      1.43082051	     26.46340842	      0.00000000	      0.00000000	     74.43365584	     -9.85464178	     -5.73599459	     79.64260218	      1.39002563	     33.14027661	      0.00000000	      0.00000000	    -22.62616108	     -4.72812149	     -7.17475599	     -2.44935712	    -44.87571878	     54.78487022	     88.65884998	     85.69349232	      0.00000000	      0.00000000	     -8.28889351	    -53.73332183	     56.49590486	     96.81759449	     87.36243379	      0.00000000	      0.00000000
      3.42000000	    -27.94957344	      6.19232806	     -2.90258566	     -0.33920532	      0.70033841	     -0.92971192	     79.68314243	    -13.14913183	      5.03114068	     81.27618870	      1.41853710	     26.07633606	      0.00000000	      0.00000000	     72.53427188	    -10.31422060	     -5.72871261	     79.01527268	      1.37907667	     32.66125522	      0.00000000	      0.00000000	    -22.51791104	     -4.65598183	     -6.74269837	     -3.23932935	    -44.77019763	     53.80833103	     88.90219748	     85.70002049	      0.00000000	      0.00000000	     -9.25900218	    -53.63339924	     55.25684943	     97.06123432	     87.35680101	      0.00000000	      0.00000000
      3.42500000	    -27.18369126	      6.24732180	     -2.49270731	     -0.33526568	      0.70663052	     -0.93080598	     78.12066236	    -13.81185529	      4.92104865	     80.55819128	      1.40600568	     25.65068988	      0.00000000	      0.00000000	     70.95105896	     -9.47908040	     -5.60957622	     77.99123204	      1.36120379	     32.21963796	      0.00000000	      0.00000000	    -22.18783673	     -4.48970910	     -7.13137380	     -4.66227434	    -44.78749913	     51.83695170	     89.57094228	     85.70193506	      0.00000000	      0.00000000	    -10.98146067	    -53.22805287	     52.98591764	     97.39556723	     87.35183971	      0.00000000	      0.00000000
      3.43000000	    -27.12659266	      6.03644337	     -2.24086120	     -0.33244421	      0.71155222	     -0.93135625	     77.34298523	    -14.02126060	      4.63306727	     79.84687111	      1.39359080	     24.80850242	      0.00000000	      0.00000000	     70.39192946	     -9.09584639	     -5.22435280	     77.22163625	      1.34777181	     31.32879081	      0.00000000	      0.00000000	    -20.91928568	     -4.14961197	     -7.21014602	     -5.57775500	    -45.15503237	     51.02363192	     90.48226805	     85.71780644	      0.00000000	      0.00000000	    -11.88799851	    -53.14518882	     52.08065314	     97.95800472	     87.33492992	      0.00000000	      0.00000000
      3.43500000	    -25.80213466	      6.06647684	     -2.69283956	     -0.32769577	      0.71898487	     -0.93041740	     75.12460363	    -13.79356394	      4.59470031	     78.96043658	      1.37811960	     24.18882704	      0.00000000	      0.00000000	     68.04535955	     -9.35810632	     -5.68426042	     76.31020323	      1.33186430	     30.77668982	      0.00000000	      0.00000000	    -21.04961097	     -4.34967646	     -6.84843845	     -6.49502336	    -45.20720141	     49.94105493	     91.06877911	     85.71309349	      0.00000000	      0.00000000	    -12.84084690	    -53.15392040	     50.95217589	     98.43522544	     87.32634526	      0.00000000	      0.00000000
      3.44000000	    -25.83202261	      5.61658485	     -2.47917124	     -0.32476556	      0.72403575	     -0.93072623	     74.27500376	    -13.82934047	      4.00876852	     78.13076725	      1.36363914	     23.50376856	      0.00000000	      0.00000000	     67.59608625	     -9.20570726	     -5.12256709	     75.54140720	      1.31844628	     30.09692014	      0.00000000	      0.00000000	    -19.77797714	     -3.76764446	     -6.70106795	     -8.47387875	    -45.48179203	     47.67537361	     92.34804671	     85.69277908	      0.00000000	      0.00000000	    -14.68505256	    -52.94392866	     48.80368915	     99.29835453	     87.31791013	      0.00000000	      0.00000000
      3.44500000	    -24.21566661	      5.69456124	     -2.82801003	     -0.31967763	      0.73269249	     -0.93018450	     71.65430148	    -13.84632228	      3.92767029	     77.09466784	      1.34555579	     22.73240503	      0.00000000	      0.00000000	     64.78068621	     -9.26224398	     -5.64110787	     74.34692803	      1.29759868	     29.35035693	      0.00000000	      0.00000000	    -20.26024087	     -3.96085646	     -6.48253679	     -9.23950328	    -45.79938177	     46.96250706	     93.29736064	     85.70717779	      0.00000000	      0.00000000	    -15.39328103	    -53.01426685	     48.08465217	     99.83375307	     87.31293441	      0.00000000	      0.00000000
